<svg width="186" height="182" viewBox="0 0 186 182" fill="none" xmlns="http://www.w3.org/2000/svg">
<path d="M30.8439 80.5C37.2466 55.7284 44.3228 28.1498 49 11M30.8439 80.5C39.5916 76.2023 55.7472 66.4325 68.3923 54M30.8439 80.5C29.3785 86.1692 27.9223 91.8485 26.5 97.4512M68.3923 54C73.8915 48.5932 82.7267 36.6829 86 30.5M68.3923 54C60.7214 67.7049 46.9388 89.7052 34.5462 112.983M34.5462 112.983C22.0722 136.414 11.0066 161.138 9 180C10.0421 169.788 18.1923 130.177 26.5 97.4512M34.5462 112.983C32.1156 108.098 29.4429 102.92 26.5 97.4512M34.5462 112.983C57.5549 159.223 58.8822 179.236 62.5 172C65.7873 165.425 71.4187 154.585 77.702 144.5M77.702 144.5C89.5769 125.441 105.566 103.725 121 93C119.833 106 117.5 132.3 117.5 133.5M77.702 144.5C77.8014 158.5 85.9 175.9 117.5 133.5M117.5 133.5C117.5 151.5 126 162.2 158 89C161.2 175.4 172.167 149.833 177.5 125M150.5 38.5C153.167 29.3333 164 8.99999 177.5 9" stroke="black" stroke-width="17"/>
</svg>
